<mxfile host="app.diagrams.net" modified="2023-10-18T10:05:41.942Z" agent="Mozilla/5.0 (Windows NT 10.0; Win64; x64) AppleWebKit/537.36 (KHTML, like Gecko) Chrome/118.0.0.0 Safari/537.36 Edg/118.0.2088.46" etag="ESP4fYU6HgTkb6_B0Icx" version="22.0.4" type="device">
  <diagram id="VitYA8HrcFcZRsFI9PcU" name="第 1 页">
    <mxGraphModel dx="712" dy="866" grid="1" gridSize="10" guides="1" tooltips="1" connect="1" arrows="1" fold="1" page="1" pageScale="1" pageWidth="827" pageHeight="1169" math="0" shadow="0">
      <root>
        <mxCell id="0" />
        <mxCell id="1" parent="0" />
        <mxCell id="UuIHMc0DeECWeBeoX4Hv-8" style="edgeStyle=orthogonalEdgeStyle;rounded=0;orthogonalLoop=1;jettySize=auto;html=1;exitX=0.5;exitY=1;exitDx=0;exitDy=0;entryX=0;entryY=0.5;entryDx=0;entryDy=0;" parent="1" source="UuIHMc0DeECWeBeoX4Hv-12" target="UuIHMc0DeECWeBeoX4Hv-16" edge="1">
          <mxGeometry relative="1" as="geometry" />
        </mxCell>
        <mxCell id="UuIHMc0DeECWeBeoX4Hv-9" value="否" style="edgeLabel;html=1;align=center;verticalAlign=middle;resizable=0;points=[];" parent="UuIHMc0DeECWeBeoX4Hv-8" vertex="1" connectable="0">
          <mxGeometry x="0.28" y="1" relative="1" as="geometry">
            <mxPoint as="offset" />
          </mxGeometry>
        </mxCell>
        <mxCell id="UuIHMc0DeECWeBeoX4Hv-10" style="edgeStyle=orthogonalEdgeStyle;rounded=0;orthogonalLoop=1;jettySize=auto;html=1;exitX=1;exitY=0.5;exitDx=0;exitDy=0;entryX=0;entryY=0.5;entryDx=0;entryDy=0;" parent="1" source="UuIHMc0DeECWeBeoX4Hv-12" target="UuIHMc0DeECWeBeoX4Hv-14" edge="1">
          <mxGeometry relative="1" as="geometry" />
        </mxCell>
        <mxCell id="UuIHMc0DeECWeBeoX4Hv-11" value="是" style="edgeLabel;html=1;align=center;verticalAlign=middle;resizable=0;points=[];" parent="UuIHMc0DeECWeBeoX4Hv-10" vertex="1" connectable="0">
          <mxGeometry x="0.05" y="-1" relative="1" as="geometry">
            <mxPoint as="offset" />
          </mxGeometry>
        </mxCell>
        <mxCell id="UuIHMc0DeECWeBeoX4Hv-12" value="是否远程节点" style="rhombus;whiteSpace=wrap;html=1;" parent="1" vertex="1">
          <mxGeometry x="250" y="360" width="120" height="60" as="geometry" />
        </mxCell>
        <mxCell id="UuIHMc0DeECWeBeoX4Hv-38" style="edgeStyle=orthogonalEdgeStyle;rounded=0;orthogonalLoop=1;jettySize=auto;html=1;exitX=1;exitY=0.5;exitDx=0;exitDy=0;entryX=0;entryY=0.5;entryDx=0;entryDy=0;" parent="1" source="UuIHMc0DeECWeBeoX4Hv-14" target="UuIHMc0DeECWeBeoX4Hv-37" edge="1">
          <mxGeometry relative="1" as="geometry" />
        </mxCell>
        <mxCell id="UuIHMc0DeECWeBeoX4Hv-14" value="HTTP客户端访问远程节点" style="rounded=0;whiteSpace=wrap;html=1;" parent="1" vertex="1">
          <mxGeometry x="410" y="370" width="90" height="40" as="geometry" />
        </mxCell>
        <mxCell id="UuIHMc0DeECWeBeoX4Hv-16" value="回退到本地节点处理" style="rounded=0;whiteSpace=wrap;html=1;" parent="1" vertex="1">
          <mxGeometry x="555" y="450" width="90" height="40" as="geometry" />
        </mxCell>
        <mxCell id="UuIHMc0DeECWeBeoX4Hv-17" value="服务端返回&lt;br&gt;缓存值" style="rounded=1;whiteSpace=wrap;html=1;" parent="1" vertex="1">
          <mxGeometry x="700" y="370" width="90" height="40" as="geometry" />
        </mxCell>
        <mxCell id="UuIHMc0DeECWeBeoX4Hv-36" style="edgeStyle=orthogonalEdgeStyle;rounded=0;orthogonalLoop=1;jettySize=auto;html=1;exitX=1;exitY=0.5;exitDx=0;exitDy=0;entryX=0;entryY=0.5;entryDx=0;entryDy=0;" parent="1" source="UuIHMc0DeECWeBeoX4Hv-35" target="UuIHMc0DeECWeBeoX4Hv-12" edge="1">
          <mxGeometry relative="1" as="geometry" />
        </mxCell>
        <mxCell id="UuIHMc0DeECWeBeoX4Hv-35" value="使用一致性哈希选择节点" style="rounded=0;whiteSpace=wrap;html=1;" parent="1" vertex="1">
          <mxGeometry x="120" y="370" width="90" height="40" as="geometry" />
        </mxCell>
        <mxCell id="UuIHMc0DeECWeBeoX4Hv-40" style="edgeStyle=orthogonalEdgeStyle;rounded=0;orthogonalLoop=1;jettySize=auto;html=1;exitX=1;exitY=0.5;exitDx=0;exitDy=0;entryX=0;entryY=0.5;entryDx=0;entryDy=0;" parent="1" source="UuIHMc0DeECWeBeoX4Hv-37" target="UuIHMc0DeECWeBeoX4Hv-17" edge="1">
          <mxGeometry relative="1" as="geometry" />
        </mxCell>
        <mxCell id="UuIHMc0DeECWeBeoX4Hv-41" value="是" style="edgeLabel;html=1;align=center;verticalAlign=middle;resizable=0;points=[];" parent="UuIHMc0DeECWeBeoX4Hv-40" vertex="1" connectable="0">
          <mxGeometry x="-0.05" y="3" relative="1" as="geometry">
            <mxPoint as="offset" />
          </mxGeometry>
        </mxCell>
        <mxCell id="UuIHMc0DeECWeBeoX4Hv-43" style="edgeStyle=orthogonalEdgeStyle;rounded=0;orthogonalLoop=1;jettySize=auto;html=1;exitX=0.5;exitY=1;exitDx=0;exitDy=0;entryX=0.5;entryY=0;entryDx=0;entryDy=0;" parent="1" source="UuIHMc0DeECWeBeoX4Hv-37" target="UuIHMc0DeECWeBeoX4Hv-16" edge="1">
          <mxGeometry relative="1" as="geometry" />
        </mxCell>
        <mxCell id="lJXn1aDOqPYDGAx9YN3f-4" value="否" style="edgeLabel;html=1;align=center;verticalAlign=middle;resizable=0;points=[];" vertex="1" connectable="0" parent="UuIHMc0DeECWeBeoX4Hv-43">
          <mxGeometry x="-0.2" relative="1" as="geometry">
            <mxPoint as="offset" />
          </mxGeometry>
        </mxCell>
        <mxCell id="UuIHMc0DeECWeBeoX4Hv-37" value="访问成功" style="rhombus;whiteSpace=wrap;html=1;" parent="1" vertex="1">
          <mxGeometry x="540" y="360" width="120" height="60" as="geometry" />
        </mxCell>
      </root>
    </mxGraphModel>
  </diagram>
</mxfile>
